# xmcd CD database file
#
# Track frame offsets:
#	150
#	17052
#	28947
#	41595
#	59915
#	74070
#	92677
#	106095
#	116952
#	128762
#
# Disc length: 1873 seconds
#
# Revision: 5
# Processed by: cddbd v1.5.1PL0 Copyright (c) Steve Scherf et al.
# Submitted via: NeoAudio 9.9.9
#
DISCID=93074f0a
DTITLE=Johnny Cash - The Many Sides Of Johnny Cash
DYEAR=2001
DGENRE=Country
TTITLE0=Ghost Riders in the Sky
TTITLE1=Flesh and Blood
TTITLE2=The Last Gunfighter Ballad
TTITLE3=One Piece at a Time
TTITLE4=Ragged Old Flag
TTITLE5=The Ballad of Ira hayes
TTITLE6=Look at them Beans
TTITLE7=Daddy Sang Bass
TTITLE8=I Still Miss Someone
TTITLE9=Ring Of Fire
EXTD=Released (c)1991 Sony Music Special Products USA\nA 19845upc7989198452\nAs "Johnny Cash - The Many Sides"\n\nand\n(c)2000 Rereleased in Canada as "Johnny Cash - The Collection"\non Medacy Entertainment - Sony Music Special Products\nKatalog: SP2 082
EXTD=0\nSony Music Special A 019845\nupc 056775082024\n\nand\n(c)2001 Rereleased in Canada as "Johnny Cash - The Collection Disc 1" (in 2 CD Box]\non Medacy Entertainment - Sony Music Special Products\n YEAR: 2001
EXTT0=
EXTT1=
EXTT2=
EXTT3=
EXTT4=
EXTT5=
EXTT6=
EXTT7=
EXTT8=
EXTT9=
PLAYORDER=
